# xmcd
#
# Track frame offsets: 
#        150
#        16685
#        38233
#        63353
#        83370
#        101103
#        122985
#        138913
#        156945
#        181220
#        203650
#        224185
#
# Disc length: 3164 seconds
#
# Revision: 2
# Processed by: cddbd v1.5.2PL0 Copyright (c) Steve Scherf et al.
# Submitted via: ExactAudioCopy v1.0b3
#
DISCID=a20c5a0c
DTITLE=Son Tuyen - Anh
DYEAR=1989
DGENRE=
TTITLE0=Anh o dau
TTITLE1=Mua dem doc hanh
TTITLE2=Ngan nam van doi
TTITLE3=For your eyes only
TTITLE4=Love is the name of the game
TTITLE5=Anh
TTITLE6=Xa anh roi
TTITLE7=Thien duong tinh ai
TTITLE8=Ngay vui qua mau
TTITLE9=Song cho qua hom nay
TTITLE10=Mua dong sap den
TTITLE11=Chuyen tinh (Love story)
EXTD=
EXTT0=
EXTT1=
EXTT2=
EXTT3=
EXTT4=
EXTT5=
EXTT6=
EXTT7=
EXTT8=
EXTT9=
EXTT10=
EXTT11=
PLAYORDER=
